<svg xmlns="http://www.w3.org/2000/svg" width="299.988" height="480.109" viewBox="0 0 468 749">
  <defs>
    <style>
      .cls-1 {
        fill: #f44336;
      }

      .cls-1, .cls-2, .cls-3, .cls-4 {
        fill-rule: evenodd;
      }

      .cls-1, .cls-2, .cls-4 {
        opacity: 0.7;
      }

      .cls-2 {
        fill: #2196f3;
      }

      .cls-4 {
        fill: #424242;
      }
    </style>
  </defs>
  <path id="Polygone_1" data-name="Polygone 1" class="cls-1" d="M466.934,354.653l-149.171,85.1L167.709,353.124l-0.883-171.738L316,96.282l150.054,86.634Z"/>
  <path id="Polygone_1-2" data-name="Polygone 1" class="cls-2" d="M301.434,259.859l-149.171,85.1L2.209,258.33,1.326,86.592,150.5,1.488,300.551,88.121Z"/>
  <path id="NOVA" class="cls-3" d="M134.818,632.626L110.6,589.951v22.46l24.219,42.579h11.914V583.017H134.818v49.609ZM106.6,654.99V583.017H94.681V654.99H106.6Zm58.643-20.9a33.805,33.805,0,0,0,5.859,11.377,25.779,25.779,0,0,0,8.936,7.129,29.957,29.957,0,0,0,11.132,2.881V645.81a14.726,14.726,0,0,1-6.152-2,15.671,15.671,0,0,1-5.127-5.029,27.134,27.134,0,0,1-3.467-8.252,51.967,51.967,0,0,1,0-23.682,26.569,26.569,0,0,1,3.418-8.2,15.073,15.073,0,0,1,5.078-4.883,16.477,16.477,0,0,1,6.25-2.051v-9.765a29.7,29.7,0,0,0-11.181,2.881,25.949,25.949,0,0,0-8.887,7.128,33.89,33.89,0,0,0-5.859,11.329A57.553,57.553,0,0,0,165.238,634.091Zm29.834-42.48a14.741,14.741,0,0,1,6.152,2,15.85,15.85,0,0,1,5.127,4.98,26.527,26.527,0,0,1,3.467,8.2,52.18,52.18,0,0,1,0,23.731,27.342,27.342,0,0,1-3.418,8.2,15.385,15.385,0,0,1-5.078,4.98,15.985,15.985,0,0,1-6.25,2.1v9.668A29.319,29.319,0,0,0,206.2,652.6a26.1,26.1,0,0,0,8.838-7.129,34.518,34.518,0,0,0,5.909-11.377,56.315,56.315,0,0,0,0-30.81,34.614,34.614,0,0,0-5.909-11.329,26.507,26.507,0,0,0-8.886-7.177,27.783,27.783,0,0,0-11.084-2.832v9.668Zm63.769,63.769h6.152V639.462l-15.136-56.445H236.478ZM269,636.337V655.38h5.079l23.437-72.363H284.232Zm77.149-53.222H334.525l-25.2,71.875h12.207l18.848-53.907,18.652,53.907h12.11Zm-12.4,49.023-2.734,7.91h18.652l-2.832-7.91H333.743Z"/>
  <path id="Device_IP_Address" data-name="Device IP Address" class="cls-3" d="M8.192,747.333h5.859V711.347H8.192v35.986Zm7.861-35.986v4.443h1.416a17.988,17.988,0,0,1,6.836,1.1,10.96,10.96,0,0,1,4.175,2.881,9.478,9.478,0,0,1,2.075,3.979,18.669,18.669,0,0,1,.537,4.444q0,7.227-2.637,11.035t-8.594,3.808H16.053v4.3h5.762a19.14,19.14,0,0,0,2.1-.171,14.483,14.483,0,0,0,3.125-.781,16.318,16.318,0,0,0,3.54-1.831,12.4,12.4,0,0,0,3.3-3.345,18.864,18.864,0,0,0,2.417-5.273,26.463,26.463,0,0,0,.952-7.593,18.037,18.037,0,0,0-1.123-6.274,15.75,15.75,0,0,0-3.394-5.445,16.582,16.582,0,0,0-5.713-3.833,20.578,20.578,0,0,0-7.983-1.44H16.053ZM58.094,724.14a5.547,5.547,0,0,1,2.393.83,7.741,7.741,0,0,1,1.88,1.685,7.372,7.372,0,0,1,1.221,2.172A7.279,7.279,0,0,1,64,731.269H52.723v4.3H69.471a18.874,18.874,0,0,0,.147-2.344,15.5,15.5,0,0,0-.806-4.98,13.462,13.462,0,0,0-2.319-4.249,12.356,12.356,0,0,0-3.638-3.027,12.044,12.044,0,0,0-4.761-1.416v4.59Zm-3.686,17.895a7.117,7.117,0,0,1-2.417-1.9,7.749,7.749,0,0,1-1.44-2.832,12.909,12.909,0,0,1-.464-3.54,15.153,15.153,0,0,1,.268-2.588,12.2,12.2,0,0,1,.928-2.954,8.327,8.327,0,0,1,1.831-2.563,5.729,5.729,0,0,1,2.979-1.465V719.5a10.237,10.237,0,0,0-4.468,1.319,13.041,13.041,0,0,0-3.638,3.051,14.494,14.494,0,0,0-2.466,4.371,15.331,15.331,0,0,0-.9,5.273,15.091,15.091,0,0,0,.977,5.469,14.726,14.726,0,0,0,2.637,4.443,11.99,11.99,0,0,0,4,3,11.708,11.708,0,0,0,5.029,1.1,12.7,12.7,0,0,0,5.469-1.026,10.738,10.738,0,0,0,3.76-3.027L64.344,740.2a6.767,6.767,0,0,1-1.587,1.172,12.476,12.476,0,0,1-1.807.806,9.311,9.311,0,0,1-1.709.439,9.173,9.173,0,0,1-1.343.122A7.838,7.838,0,0,1,54.408,742.035Zm31.665,5.494H88.9v-8.155l-5.811-19.58H76.4Zm4.834-8.155v8.155h2.832l9.668-27.735H96.766Zm25.488-19.58h-5.957v27.539H116.4V719.794Zm-0.488-11.279a3.39,3.39,0,0,0-2.491-1.025,3.332,3.332,0,0,0-2.441,1.025,3.508,3.508,0,0,0-.024,4.932,3.309,3.309,0,0,0,2.465,1.025,3.432,3.432,0,0,0,2.491-1,3.311,3.311,0,0,0,1.025-2.466A3.393,3.393,0,0,0,115.907,708.515Zm29.736,15.234a10.408,10.408,0,0,0-8.106-4.052v4.687a7.9,7.9,0,0,1,3.443.9,7.625,7.625,0,0,1,2.026,1.636Zm-8.106,23.78a9.719,9.719,0,0,0,4.3-1.148,11.521,11.521,0,0,0,3.272-2.9l-2.2-3.174a15.968,15.968,0,0,1-2.369,1.538,8.34,8.34,0,0,1-3,.855v4.834Zm-12.817-8.692a13.522,13.522,0,0,0,2.319,4.37,11.764,11.764,0,0,0,3.662,3.028,11.463,11.463,0,0,0,4.834,1.294V742.7a4.582,4.582,0,0,1-2.27-1.026,7.174,7.174,0,0,1-1.685-2.051,10.564,10.564,0,0,1-1.049-2.807,15.015,15.015,0,0,1-.367-3.394,11.52,11.52,0,0,1,1.465-5.981,5.976,5.976,0,0,1,3.906-3V719.7a11.727,11.727,0,0,0-4.76,1.342,12.662,12.662,0,0,0-3.687,3,12.851,12.851,0,0,0-2.368,4.3,16.575,16.575,0,0,0-.806,5.225A17.029,17.029,0,0,0,124.72,738.837Zm41.333-14.7a5.551,5.551,0,0,1,2.393.83,7.77,7.77,0,0,1,1.88,1.685,7.375,7.375,0,0,1,1.22,2.172,7.284,7.284,0,0,1,.415,2.442H160.682v4.3H177.43a18.815,18.815,0,0,0,.146-2.344,15.5,15.5,0,0,0-.805-4.98,13.453,13.453,0,0,0-2.32-4.249,12.348,12.348,0,0,0-3.637-3.027,12.045,12.045,0,0,0-4.761-1.416v4.59Zm-3.686,17.895a7.107,7.107,0,0,1-2.417-1.9,7.744,7.744,0,0,1-1.441-2.832,12.9,12.9,0,0,1-.464-3.54,15.19,15.19,0,0,1,.269-2.588,12.152,12.152,0,0,1,.928-2.954,8.307,8.307,0,0,1,1.831-2.563,5.725,5.725,0,0,1,2.978-1.465V719.5a10.241,10.241,0,0,0-4.468,1.319,13.032,13.032,0,0,0-3.637,3.051,14.478,14.478,0,0,0-2.466,4.371,15.325,15.325,0,0,0-.9,5.273,15.1,15.1,0,0,0,.977,5.469,14.731,14.731,0,0,0,2.637,4.443,11.982,11.982,0,0,0,4,3,11.7,11.7,0,0,0,5.029,1.1,12.708,12.708,0,0,0,5.469-1.026,10.735,10.735,0,0,0,3.759-3.027L172.3,740.2a6.76,6.76,0,0,1-1.587,1.172,12.527,12.527,0,0,1-1.806.806,9.319,9.319,0,0,1-1.709.439,9.184,9.184,0,0,1-1.343.122A7.836,7.836,0,0,1,162.367,742.035Zm43.042-30.688h-5.958v35.986h5.958V711.347Zm8.935,35.986H220.2V711.347h-5.859v35.986Zm7.861-35.986v4.443H224.6a7.893,7.893,0,0,1,3.613.708,5.922,5.922,0,0,1,2.124,1.758,5.819,5.819,0,0,1,1,2.2,9.876,9.876,0,0,1,.244,2.027,10.951,10.951,0,0,1-.537,3.686,5.854,5.854,0,0,1-1.416,2.32,5.37,5.37,0,0,1-1.928,1.2,6.422,6.422,0,0,1-2.124.366h-3.37v4.3h2.344a15.4,15.4,0,0,0,5.176-.83,11.6,11.6,0,0,0,4-2.344,10.391,10.391,0,0,0,2.588-3.735,12.753,12.753,0,0,0,.927-4.956,9.817,9.817,0,0,0-1.1-4.663,11.5,11.5,0,0,0-2.881-3.54,12.3,12.3,0,0,0-4.028-2.2,14.58,14.58,0,0,0-4.541-.732h-2.491Zm52.1,0.049h-5.811l-12.6,35.937H262l9.424-26.953,9.326,26.953h6.055Zm-6.2,24.512-1.367,3.955h9.326l-1.416-3.955H268.1Zm42.969-26.514v34.668l0.341,3.271h5.616V709.394h-5.957ZM293.2,739.35a13.1,13.1,0,0,0,2.735,5.2,8.563,8.563,0,0,0,3.345,2.319,10.786,10.786,0,0,0,3.833.708,12.405,12.405,0,0,0,3.247-.415,12.538,12.538,0,0,0,2.71-1.049v-5.078a5.183,5.183,0,0,1-4.053,1.9,4.9,4.9,0,0,1-2.612-.733,6.405,6.405,0,0,1-2.027-2,10.877,10.877,0,0,1-1.318-2.954,12.994,12.994,0,0,1-.488-3.637,14.66,14.66,0,0,1,.439-3.662,11.045,11.045,0,0,1,1.245-3.028,6.369,6.369,0,0,1,1.978-2.075,5.155,5.155,0,0,1,4.98-.22,7.053,7.053,0,0,1,1.856,1.416v-5.176a9.182,9.182,0,0,0-2.442-.976,11.88,11.88,0,0,0-2.881-.342,12.037,12.037,0,0,0-3.979.708,10.005,10.005,0,0,0-3.687,2.319,12.1,12.1,0,0,0-2.71,4.2,17.072,17.072,0,0,0-1.049,6.4A22.6,22.6,0,0,0,293.2,739.35Zm49.17-29.956v34.668l0.342,3.271h5.615V709.394h-5.957ZM324.5,739.35a13.1,13.1,0,0,0,2.735,5.2,8.567,8.567,0,0,0,3.344,2.319,10.794,10.794,0,0,0,3.833.708,12.78,12.78,0,0,0,5.957-1.464v-5.078a5.182,5.182,0,0,1-4.052,1.9,4.9,4.9,0,0,1-2.613-.733,6.4,6.4,0,0,1-2.026-2,10.877,10.877,0,0,1-1.318-2.954,12.994,12.994,0,0,1-.489-3.637,14.66,14.66,0,0,1,.44-3.662,11.045,11.045,0,0,1,1.245-3.028,6.369,6.369,0,0,1,1.978-2.075,5.155,5.155,0,0,1,4.98-.22,7.032,7.032,0,0,1,1.855,1.416v-5.176a9.161,9.161,0,0,0-2.441-.976,11.886,11.886,0,0,0-2.881-.342,12.037,12.037,0,0,0-3.979.708,10,10,0,0,0-3.687,2.319,12.1,12.1,0,0,0-2.71,4.2,17.071,17.071,0,0,0-1.05,6.4A22.559,22.559,0,0,0,324.5,739.35Zm32.178-19.556v27.539h5.908V722.626l-0.635-2.832h-5.273Zm7.91,6.2a11.813,11.813,0,0,1,2.075-.512,14.121,14.121,0,0,1,2.173-.171,13.511,13.511,0,0,1,3.321.439V719.6a23.161,23.161,0,0,0-4.639.366,10.457,10.457,0,0,0-2.93,1.05V726Zm26.66-1.855a5.546,5.546,0,0,1,2.393.83,7.733,7.733,0,0,1,1.88,1.685,7.378,7.378,0,0,1,1.221,2.172,7.284,7.284,0,0,1,.415,2.442h-11.28v4.3h16.748a18.817,18.817,0,0,0,.147-2.344,15.5,15.5,0,0,0-.806-4.98,13.471,13.471,0,0,0-2.319-4.249,12.365,12.365,0,0,0-3.638-3.027,12.045,12.045,0,0,0-4.761-1.416v4.59Zm-3.686,17.895a7.116,7.116,0,0,1-2.417-1.9A7.744,7.744,0,0,1,383.7,737.3a12.936,12.936,0,0,1-.463-3.54,15.177,15.177,0,0,1,.268-2.588,12.2,12.2,0,0,1,.928-2.954,8.323,8.323,0,0,1,1.831-2.563,5.729,5.729,0,0,1,2.978-1.465V719.5a10.233,10.233,0,0,0-4.467,1.319,13.036,13.036,0,0,0-3.638,3.051,14.5,14.5,0,0,0-2.466,4.371,15.324,15.324,0,0,0-.9,5.273,15.1,15.1,0,0,0,.976,5.469,14.731,14.731,0,0,0,2.637,4.443,11.982,11.982,0,0,0,4,3,11.707,11.707,0,0,0,5.029,1.1,12.7,12.7,0,0,0,5.469-1.026,10.738,10.738,0,0,0,3.76-3.027L397.5,740.2a6.76,6.76,0,0,1-1.587,1.172,12.431,12.431,0,0,1-1.806.806,9.319,9.319,0,0,1-1.709.439,9.173,9.173,0,0,1-1.343.122A7.839,7.839,0,0,1,387.562,742.035Zm23.974-10.375a13.135,13.135,0,0,0,3.882,2.88q0.829,0.392,1.685.708t1.684,0.562v-5.225a7.16,7.16,0,0,1-1.928-1.245,2.449,2.449,0,0,1-.757-1.88,3.158,3.158,0,0,1,.708-2.2,3.458,3.458,0,0,1,1.977-1.025v-4.883a11.3,11.3,0,0,0-3.2.757,9.671,9.671,0,0,0-2.759,1.66,7.35,7.35,0,0,0-1.9,2.539,7.924,7.924,0,0,0-.683,3.345A5.953,5.953,0,0,0,411.536,731.66Zm16.919-10.108a13.274,13.274,0,0,0-3.613-1.636,18.344,18.344,0,0,0-4.053-.61v4.834a18.976,18.976,0,0,1,2.954.439,11.853,11.853,0,0,1,2.808,1.026ZM410.34,745.136a15.3,15.3,0,0,0,2.149,1.27,11.785,11.785,0,0,0,2.026.756,10.779,10.779,0,0,0,2.026.342q1.026,0.073,2.246.073v-4.541h-0.244a8.531,8.531,0,0,1-3.393-.585,13.347,13.347,0,0,1-2.32-1.27Zm10.449-8.594a10.618,10.618,0,0,1,2.466,1.245,2.288,2.288,0,0,1,1,1.978,2.507,2.507,0,0,1-.9,2.026,5.4,5.4,0,0,1-2.564,1.05v4.639a13.867,13.867,0,0,0,3.37-.781,8.5,8.5,0,0,0,2.709-1.612,7.78,7.78,0,0,0,1.832-2.441,7.57,7.57,0,0,0,.683-3.32,6.038,6.038,0,0,0-.806-3.248,7.462,7.462,0,0,0-2.05-2.172,12.7,12.7,0,0,0-2.759-1.465q-1.513-.587-2.979-1.074v5.175Zm16.919-4.882a13.108,13.108,0,0,0,3.882,2.88q0.829,0.392,1.685.708t1.684,0.562v-5.225a7.16,7.16,0,0,1-1.928-1.245,2.449,2.449,0,0,1-.757-1.88,3.158,3.158,0,0,1,.708-2.2,3.455,3.455,0,0,1,1.977-1.025v-4.883a11.291,11.291,0,0,0-3.2.757,9.671,9.671,0,0,0-2.759,1.66,7.338,7.338,0,0,0-1.9,2.539,7.925,7.925,0,0,0-.684,3.345A5.949,5.949,0,0,0,437.708,731.66Zm16.919-10.108a13.288,13.288,0,0,0-3.613-1.636,18.344,18.344,0,0,0-4.053-.61v4.834a18.976,18.976,0,0,1,2.954.439,11.853,11.853,0,0,1,2.808,1.026Zm-18.115,23.584a15.3,15.3,0,0,0,2.148,1.27,11.825,11.825,0,0,0,2.027.756,10.779,10.779,0,0,0,2.026.342q1.026,0.073,2.246.073v-4.541h-0.244a8.531,8.531,0,0,1-3.393-.585,13.347,13.347,0,0,1-2.32-1.27Zm10.449-8.594a10.618,10.618,0,0,1,2.466,1.245,2.288,2.288,0,0,1,1,1.978,2.507,2.507,0,0,1-.9,2.026,5.4,5.4,0,0,1-2.564,1.05v4.639a13.848,13.848,0,0,0,3.369-.781,8.494,8.494,0,0,0,2.71-1.612,7.762,7.762,0,0,0,1.831-2.441,7.555,7.555,0,0,0,.684-3.32,6.047,6.047,0,0,0-.806-3.248,7.462,7.462,0,0,0-2.05-2.172,12.745,12.745,0,0,0-2.759-1.465q-1.515-.587-2.979-1.074v5.175Z"/>
  <path id="Polygone_1-3" data-name="Polygone 1" class="cls-4" d="M302.934,448.314l-149.171,85.1L3.709,446.784,2.826,275.046,152,189.942l150.054,86.634Z"/>
</svg>
